<svg width="165" height="34" viewBox="0 0 165 34" fill="none" xmlns="http://www.w3.org/2000/svg">
  <path d="M62.7172 12.1118H59V28.6645H62.7172V21.9539H70.871V28.6645H74.4683V12.1118H70.871V18.8224H62.7172V12.1118ZM91.2557 21.6184C91.2557 24.3026 89.8167 25.7566 87.1787 25.7566C84.5407 25.7566 83.1018 24.3026 83.1018 21.5066V12.1118H79.5045V21.6184C79.5045 26.3158 82.2624 29 87.1787 29C92.095 29 94.8529 26.3158 94.8529 21.5066V12.1118H91.2557V21.6184ZM126.029 12.1118L121.952 23.5197L117.995 12.1118H114.158L120.394 28.6645H123.391L127.468 17.8158L131.425 28.6645H134.543L140.658 12.1118H136.941L132.984 23.5197L128.907 12.1118H126.029ZM153.729 18.4868H147.133V15.1316H156.726V12.1118H143.536V28.6645H157.086V25.6447H147.133V21.5066H153.729V18.4868ZM161.403 12.1118H165V28.6645H161.403V12.1118ZM110.081 25.1974L111.64 28.6645H115.477L107.683 12.1118L107.563 12H104.446L96.6516 28.6645H100.369L101.928 25.4211L102.048 25.1974H110.081ZM106.005 16.25L108.523 21.8421L108.643 22.1776H103.127L103.247 21.8421L106.005 16.25Z" fill="#CECECE"/>
  <path d="M19.821 26.5232C19.821 26.5232 19.9388 26.4084 19.821 26.4084C14.405 14.9265 6.98748 6.08541 6.98748 6.08541C6.98748 6.08541 2.98435 9.75961 3.21982 13.5486C3.33756 16.4191 5.57461 18.0266 5.57461 18.0266C9.10678 21.3563 17.584 25.6046 19.5856 26.5232H19.821ZM18.4082 29.3937C18.4082 29.2788 18.1727 29.2788 18.1727 29.2788L4.044 29.7381C5.57461 32.379 8.16487 34.4457 10.8729 33.8716C12.7567 33.4123 16.9953 30.5419 18.2904 29.6233C18.5259 29.3937 18.4082 29.3937 18.4082 29.3937ZM18.6437 28.1307C18.7614 28.0158 18.6437 27.901 18.6437 27.901C12.4035 23.7675 0.394086 17.5673 0.394086 17.5673C-0.665567 20.8971 0.747303 23.5379 0.747303 23.5379C2.27791 26.7528 5.22139 27.6714 5.22139 27.6714C6.51652 28.2455 7.92939 28.2455 7.92939 28.2455H18.5259C18.6437 28.2455 18.6437 28.1307 18.6437 28.1307ZM19.5856 0.114819C18.9969 0.114819 17.3485 0.574095 17.3485 0.574095C13.5809 1.49265 12.7567 4.8224 12.7567 4.8224C12.0503 6.88914 12.7567 9.18552 12.7567 9.18552C14.0518 14.582 20.1743 23.5379 21.4694 25.375L21.5871 25.4898C21.7049 25.4898 21.7049 25.375 21.7049 25.375C23.8242 5.28167 19.5856 0.114819 19.5856 0.114819ZM24.2951 25.375C24.4129 25.375 24.5306 25.2602 24.5306 25.2602C25.9435 23.3083 31.9482 14.4672 33.2433 9.0707C33.2433 9.0707 33.9497 6.42986 33.2433 4.70758C33.2433 4.70758 32.3014 1.37783 28.5337 0.459276C28.5337 0.459276 27.4741 0.229638 26.2967 0C26.2967 0 22.0581 5.28167 24.1774 25.1454C24.1774 25.375 24.2951 25.375 24.2951 25.375ZM27.5918 29.2788C27.5918 29.2788 27.4741 29.2788 27.4741 29.3937V29.6233C28.887 30.5419 32.8901 33.4123 34.8917 33.8716C34.8917 33.8716 38.5416 35.1346 41.7205 29.7381L27.5918 29.2788ZM45.6059 17.4525C45.6059 17.4525 33.5965 23.7675 27.3563 27.901C27.3563 27.901 27.2386 28.0158 27.2386 28.1307C27.2386 28.1307 27.2386 28.2455 27.3563 28.2455H38.1884C38.1884 28.2455 39.248 28.2455 40.6609 27.6714C40.6609 27.6714 43.6044 26.7528 45.2527 23.4231C45.2527 23.3083 46.6656 20.6674 45.6059 17.4525ZM26.179 26.5232C26.179 26.5232 26.2967 26.638 26.4144 26.5232C28.416 25.4898 36.8932 21.3563 40.4254 18.0266C40.4254 18.0266 42.6624 16.3043 42.7802 13.5486C43.0157 9.6448 39.0125 6.08541 39.0125 6.08541C39.0125 6.08541 31.595 14.6968 26.179 26.2935C26.179 26.2935 26.0612 26.4084 26.179 26.5232Z" fill="#CECECE"/>
</svg>
