<svg width="56" height="56" viewBox="0 0 56 56" fill="none" xmlns="http://www.w3.org/2000/svg">
<path d="M56 56H0C0 51.2936 3.19156 47.1865 7.7525 46.0239L16.0005 43.9217H39.9995L48.2475 46.0239C50.528 46.6047 52.4661 47.9226 53.8344 49.6825C55.2016 51.4434 56 53.6462 56 56Z" fill="#397093"/>
<path d="M35.2597 42.7131V49.1618H20.7412V42.7131L21.614 36.0007H28.0004L34.3868 35.9996L35.2597 42.7131Z" fill="#FFB19E"/>
<path d="M35.2592 42.7131V49.1618H28V36.0007L34.3864 35.9996L35.2592 42.7131Z" fill="#F07F73"/>
<path d="M28 49.1618L20.0003 56L16.0005 43.9217L20.7408 42.7131L28 49.1618Z" fill="#F3FDFF"/>
<path d="M39.9995 43.9217L35.9997 56L28 49.1618L35.2592 42.7131L39.9995 43.9217Z" fill="#D7F3F7"/>
<path d="M45.3174 17.3173V19.0039H42.0362V17.3173C42.0362 9.57797 35.7395 3.28125 28.0001 3.28125C20.2607 3.28125 13.964 9.57797 13.964 17.3173V19.0039H10.6827V17.3173C10.6827 7.76891 18.4516 0 28.0001 0C37.5485 0 45.3174 7.76891 45.3174 17.3173Z" fill="#39689E"/>
<path d="M45.3173 17.3173V19.0039H42.0361V17.3173C42.0361 9.57797 35.7394 3.28125 28 3.28125V0C37.5484 0 45.3173 7.76891 45.3173 17.3173Z" fill="#224370"/>
<path d="M19.2531 27.4191H12.3477C10.8538 27.4191 9.64282 26.2081 9.64282 24.7143V19.9508C9.64282 18.4569 10.8538 17.2459 12.3477 17.2459H17.7218L19.2531 27.4191Z" fill="#9CB7C9"/>
<path d="M38.5559 16.278V16.5077L28.278 17.3455L18 16.5077V16.278C18 10.6014 22.6014 6 28.278 6C31.1163 6 33.6855 7.15062 35.5459 9.01C37.4053 10.8705 38.5559 13.4397 38.5559 16.278Z" fill="#F57307"/>
<path d="M38.2775 17.2459H43.6516C45.1454 17.2459 46.3564 18.4569 46.3564 19.9508V24.7143C46.3564 26.2081 45.1454 27.4191 43.6516 27.4191H36.7462L38.2775 17.2459Z" fill="#9CB7C9"/>
<path d="M38.2774 17.2463V27.4772C38.2774 33.5191 33.676 38.418 27.9994 38.418C25.1611 38.418 22.5919 37.193 20.7314 35.2133C20.2786 34.7321 19.8685 34.2049 19.5075 33.6405C19.175 33.1242 20.0522 31.9999 20.0522 31.9999C20.0522 31.9999 18.2278 30.9258 18.0835 30.3592C17.8472 29.4416 17.7214 28.4747 17.7214 27.4772V17.2463H38.2774Z" fill="#F9C5B9"/>
<path d="M38.278 17.2463V27.4772C38.278 33.5191 33.6766 38.418 28 38.418V17.2463H38.278Z" fill="#FFB19E"/>
<path d="M28.0004 30.3592V33.6404H19.5085C18.8731 32.6517 18.3863 31.5459 18.0845 30.3592H28.0004Z" fill="#397093"/>
</svg>
