<svg width="52" height="56" viewBox="0 0 52 56" fill="none" xmlns="http://www.w3.org/2000/svg">
  <path d="M2.64844 25.4965H49.3423V29.1388H2.64844V25.4965Z" fill="#397093"/>
  <path d="M50.6735 40.0649H1.32659C0.594016 40.0649 0 39.5553 0 38.9267V30.2763C0 29.6477 0.593888 29.1381 1.32659 29.1381H50.6735C51.4061 29.1381 52 29.6476 52 30.2763V38.9267C52 39.5553 51.4061 40.0649 50.6735 40.0649Z" fill="#ABC2E2"/>
  <path d="M50.6651 40.0649H48.2773V29.1381H50.6651C51.3977 29.1381 51.9916 29.6476 51.9916 30.2763V38.9267C51.9916 39.5553 51.3977 40.0649 50.6651 40.0649Z" fill="#224370"/>
  <path d="M50.6735 10.9268H1.32659C0.594016 10.9268 0 10.4172 0 9.78855V1.13827C0.000127471 0.50958 0.594016 0 1.32659 0H50.6735C51.4061 0 52 0.50958 52 1.13827V9.78866C52 10.4172 51.4061 10.9268 50.6735 10.9268Z" fill="#ABC2E2"/>
  <path d="M50.6651 10.9268H48.2773V0H50.6651C51.3977 0 51.9916 0.50958 51.9916 1.13827V9.78866C51.9916 10.4172 51.3977 10.9268 50.6651 10.9268Z" fill="#224370"/>
  <path d="M2.64844 10.9268H49.3423V14.5691H2.64844V10.9268Z" fill="#397093"/>
  <path d="M15.9102 7.28478H13.7878C13.2016 7.28478 12.7266 6.87714 12.7266 6.37423V4.55313C12.7266 4.05022 13.2016 3.64258 13.7878 3.64258H15.9102C16.4963 3.64258 16.9714 4.05022 16.9714 4.55313V6.37423C16.9714 6.87703 16.4961 7.28478 15.9102 7.28478Z" fill="#A2F5C3"/>
  <path d="M24.418 7.28478H22.2956C21.7095 7.28478 21.2344 6.87714 21.2344 6.37423V4.55313C21.2344 4.05022 21.7095 3.64258 22.2956 3.64258H24.418C25.0041 3.64258 25.4792 4.05022 25.4792 4.55313V6.37423C25.4792 6.87703 25.0041 7.28478 24.418 7.28478Z" fill="#F57307"/>
  <path d="M46.7022 7.28478H30.7839C30.1977 7.28478 29.7227 6.87714 29.7227 6.37423V4.55313C29.7227 4.05022 30.1977 3.64258 30.7839 3.64258H46.7022C47.2883 3.64258 47.7634 4.05022 47.7634 4.55313V6.37423C47.7635 6.87703 47.2883 7.28478 46.7022 7.28478Z" fill="#224370"/>
  <path d="M7.42578 7.28478H5.30339C4.71727 7.28478 4.24219 6.87714 4.24219 6.37423V4.55313C4.24219 4.05022 4.71727 3.64258 5.30339 3.64258H7.42578C8.0119 3.64258 8.48698 4.05022 8.48698 4.55313V6.37423C8.48698 6.87703 8.0119 7.28478 7.42578 7.28478Z" fill="#A2F5C3"/>
  <path d="M50.6735 25.4963H1.32659C0.594016 25.4963 0 24.9867 0 24.358V15.7076C0 15.079 0.593888 14.5693 1.32659 14.5693H50.6735C51.4061 14.5693 52 15.0789 52 15.7076V24.358C52 24.9867 51.4061 25.4963 50.6735 25.4963Z" fill="#ABC2E2"/>
  <path d="M50.6651 25.4962H48.2773V14.5693H50.6651C51.3977 14.5693 51.9916 15.0789 51.9916 15.7076V24.358C51.9916 24.9866 51.3977 25.4962 50.6651 25.4962Z" fill="#224370"/>
  <path d="M15.9102 21.8536H13.7878C13.2016 21.8536 12.7266 21.446 12.7266 20.9431V19.122C12.7266 18.6191 13.2016 18.2114 13.7878 18.2114H15.9102C16.4963 18.2114 16.9714 18.6191 16.9714 19.122V20.9431C16.9714 21.446 16.4961 21.8536 15.9102 21.8536Z" fill="#A2F5C3"/>
  <path d="M24.418 21.8536H22.2956C21.7095 21.8536 21.2344 21.446 21.2344 20.9431V19.122C21.2344 18.6191 21.7095 18.2114 22.2956 18.2114H24.418C25.0041 18.2114 25.4792 18.6191 25.4792 19.122V20.9431C25.4792 21.446 25.0041 21.8536 24.418 21.8536Z" fill="#F57307"/>
  <path d="M46.7022 21.8536H30.7839C30.1977 21.8536 29.7227 21.446 29.7227 20.9431V19.122C29.7227 18.6191 30.1977 18.2114 30.7839 18.2114H46.7022C47.2883 18.2114 47.7634 18.6191 47.7634 19.122V20.9431C47.7635 21.446 47.2883 21.8536 46.7022 21.8536Z" fill="#224370"/>
  <path d="M7.42578 21.8536H5.30339C4.71727 21.8536 4.24219 21.446 4.24219 20.9431V19.122C4.24219 18.6191 4.71727 18.2114 5.30339 18.2114H7.42578C8.0119 18.2114 8.48698 18.6191 8.48698 19.122V20.9431C8.48698 21.446 8.0119 21.8536 7.42578 21.8536Z" fill="#A2F5C3"/>
  <path d="M25.9968 56C34.6418 56 41.6499 49.9867 41.6499 42.569C41.6499 35.1513 34.6418 29.1381 25.9968 29.1381C17.3519 29.1381 10.3438 35.1513 10.3438 42.569C10.3438 49.9867 17.3519 56 25.9968 56Z" fill="#F57307"/>
  <path d="M33.2932 42.569C33.2932 42.4292 33.2872 42.2908 33.2762 42.1534C33.2598 41.9494 33.3471 41.7495 33.5193 41.6082L35.1077 40.3054C35.373 40.0878 35.4305 39.7429 35.2471 39.4702L33.7498 37.245C33.5664 36.9723 33.1894 36.8426 32.8372 36.9309L30.7294 37.4595C30.5027 37.5164 30.259 37.4833 30.0629 37.3703C29.7913 37.2138 29.5066 37.0727 29.2108 36.948C28.9991 36.8589 28.8441 36.6942 28.7881 36.4977L28.2678 34.6673C28.1808 34.3614 27.8614 34.1462 27.4945 34.1462H24.4998C24.1328 34.1462 23.8135 34.3615 23.7266 34.6673L23.2062 36.4977C23.1504 36.6942 22.9953 36.8589 22.7836 36.948C22.4877 37.0726 22.203 37.2138 21.9314 37.3703C21.7354 37.4833 21.4916 37.5164 21.265 37.4595L19.1571 36.9309C18.8049 36.8426 18.428 36.9723 18.2446 37.245L16.7473 39.4702C16.5638 39.7429 16.6213 40.0878 16.8866 40.3054L18.475 41.6082C18.6474 41.7495 18.7346 41.9494 18.7181 42.1534C18.707 42.2908 18.7012 42.4292 18.7012 42.569C18.7012 42.7088 18.7071 42.8473 18.7181 42.9846C18.7346 43.1886 18.6472 43.3886 18.475 43.5299L16.8866 44.8326C16.6213 45.0502 16.5638 45.3952 16.7473 45.6678L18.2446 47.8931C18.428 48.1658 18.8049 48.2955 19.1571 48.2071L21.265 47.6785C21.4916 47.6216 21.7354 47.6548 21.9314 47.7677C22.203 47.9243 22.4877 48.0653 22.7836 48.19C22.9953 48.2792 23.1503 48.4438 23.2062 48.6403L23.7266 50.4707C23.8135 50.7767 24.133 50.9918 24.4998 50.9918H27.4945C27.8615 50.9918 28.1808 50.7765 28.2678 50.4707L28.7881 48.6403C28.8439 48.4438 28.9991 48.2792 29.2108 48.19C29.5066 48.0655 29.7913 47.9243 30.0629 47.7677C30.259 47.6548 30.5027 47.6216 30.7294 47.6785L32.8372 48.2071C33.1894 48.2955 33.5664 48.1658 33.7498 47.8931L35.2471 45.6678C35.4305 45.3952 35.373 45.0502 35.1077 44.8326L33.5193 43.5299C33.347 43.3886 33.2598 43.1886 33.2762 42.9846C33.2872 42.8473 33.2932 42.7088 33.2932 42.569ZM28.1196 42.569C28.1196 43.5748 27.1693 44.3901 25.9972 44.3901C24.825 44.3901 23.8748 43.5747 23.8748 42.569C23.8748 41.5632 24.8251 40.7479 25.9972 40.7479C27.1695 40.7479 28.1196 41.5633 28.1196 42.569Z" fill="#E6F7FE"/>
</svg>
