<svg width="57" height="56" viewBox="0 0 57 56" fill="none" xmlns="http://www.w3.org/2000/svg">
<path d="M22.2698 33.7326L21.142 36.4131L18.4611 37.5409L17.1023 37.735L17.2964 36.3763C17.607 36.0657 20.7714 32.9017 21.1533 32.5198L22.4754 32.3613L22.2698 33.7326Z" fill="#2E537E"/>
<path d="M23.6456 33.5271L23.4872 34.8491C22.9056 35.4306 20.7618 37.5742 19.6303 38.7057L18.2715 38.8997L18.4656 37.5411C18.5866 37.4201 21.884 34.1231 22.2743 33.7328L23.6456 33.5271Z" fill="#142D58"/>
<path d="M12.4959 36.235C10.966 37.7647 1.86915 46.8605 1.50644 47.2231C-0.511596 49.2411 -0.493257 52.4902 1.5082 54.4918L10.761 46.7927L16.1315 39.8701L15.0902 37.2761L12.4959 36.235Z" fill="#F57307"/>
<path d="M16.1345 39.8701C14.2313 41.7731 1.74239 54.2607 1.51123 54.4918C3.51312 56.4935 6.7626 56.5107 8.78053 54.4935C9.22527 54.0488 19.3342 43.941 19.77 43.5052L18.7287 40.9111L16.1345 39.8701Z" fill="#F57307"/>
<path d="M16.1322 39.8703C15.9098 39.648 16.3708 40.1089 12.4966 36.2352L14.826 33.906L18.4615 37.5411L17.9027 39.3115L16.1322 39.8703Z" fill="#FFDF40"/>
<path d="M19.7673 43.5054C18.3091 42.0474 17.8827 41.621 16.1318 39.8702C16.9465 39.0556 17.6466 38.3556 18.4613 37.541C19.9195 38.9991 20.349 39.4285 22.0968 41.1762C21.2821 41.9908 20.582 42.6908 19.7673 43.5054Z" fill="#FFBE40"/>
<path d="M22.2693 5.79626C14.5527 13.5123 14.5315 25.9961 22.2693 33.734L37.0163 20.5415L50.2103 5.79626C42.5112 -1.90137 30.0292 -1.96274 22.2693 5.79626Z" fill="#397093"/>
<path d="M50.2055 5.79639C49.4172 6.58443 23.0528 32.9461 22.2646 33.7341C30.0138 41.482 42.4981 41.4404 50.2054 33.734C57.929 26.0113 57.9376 13.5276 50.2055 5.79639Z" fill="#397093"/>
<path d="M25.7601 9.28814C19.9606 15.0872 19.9689 24.451 25.76 30.2414L37.1114 20.6382L46.7156 9.28814C40.9152 3.48832 31.5513 3.49732 25.7601 9.28814Z" fill="#EDF5FF"/>
<path d="M46.7164 9.28784C46.1252 9.8789 26.352 29.6499 25.7607 30.2411C31.5711 36.0511 40.9351 36.0218 46.7163 30.2412C52.5099 24.4483 52.5148 15.0857 46.7164 9.28784Z" fill="#EDF5FF"/>
<path d="M34.9331 21.0706L33.8681 20.0059L32.8033 18.9412C31.9886 19.7558 31.2886 20.4558 30.4739 21.2704L31.5387 22.3351L32.6037 23.4L34.6033 22.9532L34.9331 21.0706Z" fill="#54E360"/>
<path d="M34.935 25.7299C35.8493 24.8157 41.7781 18.8874 42.6884 17.9772L41.5237 16.8126L40.3592 15.6482C39.8294 16.1779 32.7618 23.2449 32.6057 23.4008C32.6236 23.4187 34.9214 25.7163 34.935 25.7299Z" fill="#00CC71"/>
</svg>
