<svg width="46" height="56" viewBox="0 0 46 56" fill="none" xmlns="http://www.w3.org/2000/svg">
<path d="M34.8411 49.2193L24.2643 38.211L28.6696 33.6498C29.0195 33.2876 28.974 32.7409 28.5679 32.4288C28.1623 32.1168 27.5493 32.1572 27.1993 32.5196L22.9867 36.8813L18.4677 32.1778C18.119 31.8149 17.5064 31.7728 17.0993 32.0838C16.6923 32.3951 16.6454 32.9416 16.994 33.3046L21.7052 38.2081L11.3134 48.9677C10.9636 49.3299 11.009 49.8766 11.4152 50.1887C11.5984 50.3296 11.8238 50.3986 12.0482 50.3986C12.3207 50.3986 12.5918 50.2967 12.7838 50.098L22.9828 39.5378L33.3675 50.3461C33.5594 50.546 33.8312 50.6484 34.1047 50.6484C34.328 50.6484 34.5527 50.5799 34.7358 50.44C35.1428 50.1288 35.1897 49.5823 34.8411 49.2193Z" fill="#F57307"/>
<path d="M39.512 27.106C39.3081 27.106 39.104 27.0214 38.9483 26.8525C38.637 26.5143 38.637 25.9661 38.9483 25.6279C45.0785 18.9698 45.0785 8.13613 38.9483 1.47802C38.637 1.13984 38.637 0.591656 38.9483 0.253473C39.2597 -0.0844911 39.7644 -0.0844911 40.0757 0.253473C46.8274 7.58686 46.8274 19.5191 40.0757 26.8525C39.92 27.0214 39.7159 27.106 39.512 27.106Z" fill="#397093"/>
<path d="M35.8438 23.1211C35.6399 23.1211 35.4358 23.0366 35.2801 22.8676C34.9688 22.5294 34.9688 21.9813 35.2801 21.6431C37.27 19.4818 38.3657 16.6085 38.3657 13.5521C38.3657 10.4955 37.2699 7.62204 35.2801 5.46093C34.9688 5.12275 34.9688 4.57457 35.2801 4.23638C35.5914 3.89842 36.0961 3.89842 36.4075 4.23638C38.6984 6.72474 39.9601 10.033 39.9601 13.5521C39.9601 17.071 38.6984 20.3793 36.4075 22.8676C36.2518 23.0366 36.0477 23.1211 35.8438 23.1211Z" fill="#397093"/>
<path d="M32.1756 19.1387C31.9717 19.1387 31.7675 19.0542 31.612 18.8852C31.3006 18.5471 31.3006 17.9989 31.6119 17.6608C32.622 16.5635 33.1782 15.1049 33.1782 13.5535C33.1782 12.002 32.622 10.5433 31.6119 9.44628C31.3006 9.1081 31.3006 8.55992 31.6119 8.22173C31.9232 7.88377 32.4279 7.88377 32.7393 8.22173C34.0504 9.64589 34.7725 11.5395 34.7725 13.5535C34.7725 15.5674 34.0504 17.461 32.7393 18.8851C32.5836 19.0542 32.3796 19.1387 32.1756 19.1387Z" fill="#397093"/>
<path d="M6.50053 27.106C6.29661 27.106 6.0925 27.0214 5.93682 26.8525C-0.814876 19.5191 -0.814876 7.58686 5.93682 0.253473C6.24818 -0.0844911 6.75288 -0.0844911 7.06425 0.253473C7.37551 0.591656 7.37551 1.13984 7.06425 1.47802C0.934071 8.13613 0.934071 18.9698 7.06425 25.6279C7.37551 25.9661 7.37551 26.5143 7.06425 26.8525C6.90856 27.0214 6.70455 27.106 6.50053 27.106Z" fill="#397093"/>
<path d="M10.1662 23.1211C9.96232 23.1211 9.7582 23.0366 9.60252 22.8676C7.31161 20.3793 6.05005 17.071 6.05005 13.5521C6.05005 10.033 7.31171 6.72474 9.60252 4.23638C9.91388 3.89842 10.4186 3.89842 10.7299 4.23638C11.0412 4.57457 11.0412 5.12275 10.7299 5.46093C8.74003 7.62215 7.64432 10.4955 7.64432 13.5521C7.64432 16.6085 8.74013 19.4818 10.7299 21.6431C11.0412 21.9813 11.0412 22.5294 10.7299 22.8676C10.5743 23.0366 10.3702 23.1211 10.1662 23.1211Z" fill="#397093"/>
<path d="M13.8298 19.1392C13.6258 19.1392 13.4218 19.0547 13.2661 18.8856C11.955 17.4614 11.2329 15.5679 11.2329 13.554C11.2329 11.54 11.955 9.64638 13.2661 8.22222C13.5775 7.88426 14.0822 7.88426 14.3936 8.22222C14.7048 8.56041 14.7048 9.10859 14.3936 9.44677C13.3834 10.5438 12.8272 12.0025 12.8272 13.554C12.8272 15.1054 13.3834 16.564 14.3936 17.6613C14.7048 17.9993 14.7048 18.5476 14.3935 18.8857C14.2379 19.0547 14.0338 19.1392 13.8298 19.1392Z" fill="#397093"/>
<path d="M32.4204 52.5406L23.0028 22.2389L13.585 52.5406H9.35059L21.1022 14.7301C21.3777 13.8436 22.1415 13.248 23.0028 13.248C23.8641 13.248 24.6279 13.8436 24.9033 14.7299L36.6548 52.5406H32.4204Z" fill="#397093"/>
<path d="M37.1038 56C38.5034 56 39.638 54.7677 39.638 53.2475C39.638 51.7273 38.5034 50.495 37.1038 50.495H2.5342C1.13458 50.495 0 51.7273 0 53.2475C0 54.7677 1.13458 56 2.5342 56H37.1038Z" fill="#DDDAEC"/>
<path d="M43.4668 50.4951H36.3591C37.7588 50.4951 38.8933 51.7274 38.8933 53.2476C38.8933 54.7678 37.7588 56.0001 36.3591 56.0001H43.4668C44.8664 56.0001 46.001 54.7678 46.001 53.2476C46.001 51.7274 44.8664 50.4951 43.4668 50.4951Z" fill="#D0CEE7"/>
<path d="M22.9975 18.5763C25.5515 18.5763 27.6219 16.3275 27.6219 13.5535C27.6219 10.7795 25.5515 8.53076 22.9975 8.53076C20.4435 8.53076 18.373 10.7795 18.373 13.5535C18.373 16.3275 20.4435 18.5763 22.9975 18.5763Z" fill="#ABC2E2"/>
</svg>
