<svg width="56" height="56" viewBox="0 0 56 56" fill="none" xmlns="http://www.w3.org/2000/svg">
<path d="M0 52.7188H6.5625V56H16.4062V52.7188H22.9688V36.3125H0V52.7188Z" fill="#397093"/>
<path d="M33.0312 36.3125V52.7188H39.5938V56H49.4375V52.7188H56V36.3125H33.0312Z" fill="#397093"/>
<path d="M23.0781 19.6875H32.9219V16.4062H39.4844V0H16.5156V16.4062H23.0781V19.6875Z" fill="#397093"/>
<path d="M13.125 29.6406H42.875V33.0312H46.1562V26.3594H29.6406V22.9688H26.3594V26.3594H9.84375V33.0312H13.125V29.6406Z" fill="#F57307"/>
<path d="M36.2031 3.28125H19.7969V13.125H36.2031V3.28125Z" fill="#E7F3FF"/>
<path d="M52.7188 39.5938H36.3125V49.4375H52.7188V39.5938Z" fill="#E7F3FF"/>
<path d="M19.6875 39.5938H3.28125V49.4375H19.6875V39.5938Z" fill="#E7F3FF"/>
<path d="M36.2031 3.28125H28V13.125H36.2031V3.28125Z" fill="#E7F3FF"/>
<path d="M52.7188 39.5938H44.5156V49.4375H52.7188V39.5938Z" fill="#E7F3FF"/>
<path d="M19.6875 39.5938H11.4844V49.4375H19.6875V39.5938Z" fill="#E7F3FF"/>
</svg>
