<svg width="56" height="49" viewBox="0 0 56 49" fill="none" xmlns="http://www.w3.org/2000/svg">
  <path d="M34.8867 37.0198V47.3812C34.8867 48.2748 34.1517 49.0001 33.2461 49.0001H22.7461C21.8405 49.0001 21.1055 48.2748 21.1055 47.3812V37.0198C21.1055 36.1262 21.8405 35.4009 22.7461 35.4009H33.2461C34.1517 35.4009 34.8867 36.1262 34.8867 37.0198Z" fill="#397093"/>
  <path d="M51.0781 0H4.92188C2.20828 0 0 2.17912 0 4.85687V33.7822C0 36.46 2.20828 38.6391 4.92188 38.6391H51.0781C53.7917 38.6391 56 36.46 56 33.7822V4.85687C56 2.17912 53.7917 0 51.0781 0Z" fill="#397093"/>
  <path d="M52.7188 4.85712V33.7825C52.7188 34.675 51.9827 35.4014 51.0781 35.4014H4.92188C4.01734 35.4014 3.28125 34.675 3.28125 33.7825V4.85712C3.28125 3.96453 4.01734 3.23816 4.92188 3.23816H51.0781C51.9827 3.23816 52.7188 3.96453 52.7188 4.85712Z" fill="#F4FAFF"/>
  <path d="M52.7148 4.85712V33.7825C52.7148 34.675 51.9788 35.4014 51.0742 35.4014H27.9961V3.23816H51.0742C51.9788 3.23816 52.7148 3.96453 52.7148 4.85712Z" fill="#D8EBFF"/>
  <path d="M47.1445 47.381C47.1445 48.2747 46.4095 49 45.5039 49H10.5039C9.59828 49 8.86328 48.2747 8.86328 47.381C8.86328 46.4874 9.59828 45.7621 10.5039 45.7621H45.5039C46.4095 45.7621 47.1445 46.4874 47.1445 47.381Z" fill="#397093"/>
  <path d="M7.5895 10.5338C6.97546 9.92787 6.92373 8.92045 7.5895 8.24459C8.66181 7.21731 10.3906 7.97789 10.3906 9.38973C10.3906 10.8235 8.61981 11.5519 7.5895 10.5338Z" fill="#F57307"/>
  <path d="M23.3906 11.0094H14.6406C13.7346 11.0094 13 10.2845 13 9.39044C13 8.49634 13.7346 7.77148 14.6406 7.77148H23.3906C24.2967 7.77148 25.0313 8.49634 25.0313 9.39044C25.0313 10.2845 24.2967 11.0094 23.3906 11.0094Z" fill="#39689E"/>
  <path d="M8.75 17.9164C7.85302 17.9164 7.10938 17.198 7.10938 16.2975C7.10938 15.3317 7.96075 14.5909 8.91187 14.6871C9.79234 14.7597 10.4755 15.5643 10.3819 16.4561C10.3162 17.2495 9.6063 17.9164 8.75 17.9164Z" fill="#F57307"/>
  <path d="M23.3906 17.9161H14.6406C13.7346 17.9161 13 17.1913 13 16.2972C13 15.4031 13.7346 14.6782 14.6406 14.6782H23.3906C24.2967 14.6782 25.0313 15.4031 25.0313 16.2972C25.0313 17.1913 24.2967 17.9161 23.3906 17.9161Z" fill="#224370"/>
  <path d="M7.59116 23.3487C6.6175 22.3913 7.20484 20.7378 8.58975 20.5933C10.0685 20.4594 10.9285 22.1331 10.0204 23.2311C9.41914 23.9589 8.28569 24.035 7.59116 23.3487Z" fill="#F57307"/>
  <path d="M23.3906 23.754H14.6406C13.7346 23.754 13 23.0292 13 22.1351C13 21.241 13.7346 20.5161 14.6406 20.5161H23.3906C24.2967 20.5161 25.0313 21.241 25.0313 22.1351C25.0313 23.0292 24.2967 23.754 23.3906 23.754Z" fill="#39689E"/>
  <path d="M39.3711 25.6872C44.6264 25.6872 48.8867 21.4832 48.8867 16.2973C48.8867 11.1114 44.6264 6.90735 39.3711 6.90735C34.1158 6.90735 29.8555 11.1114 29.8555 16.2973C29.8555 21.4832 34.1158 25.6872 39.3711 25.6872Z" fill="#F57307"/>
  <path d="M48.8945 16.2973H39.3789V6.90735C44.6256 6.90735 48.8945 11.1199 48.8945 16.2973Z" fill="#FAB983"/>
  <path d="M17.2656 31.7316H14.6406C13.7346 31.7316 13 31.0067 13 30.1126C13 29.2185 13.7346 28.4937 14.6406 28.4937H17.2656C18.1717 28.4937 18.9062 29.2185 18.9062 30.1126C18.9062 31.0067 18.1717 31.7316 17.2656 31.7316Z" fill="#FFE278"/>
  <path d="M41.2656 31.7316H38.6406C37.7346 31.7316 37 31.0067 37 30.1126C37 29.2185 37.7346 28.4937 38.6406 28.4937H41.2656C42.1717 28.4937 42.9063 29.2185 42.9063 30.1126C42.9063 31.0067 42.1717 31.7316 41.2656 31.7316Z" fill="#00CB75"/>
</svg>
