<svg width="24" height="24" viewBox="0 0 24 24" fill="none" xmlns="http://www.w3.org/2000/svg">
<g clip-path="url(#clip0)">
<path d="M15.8964 12.2239C15.7264 11.8884 15.3804 11.6767 15.0014 11.6767H13.0014V1.78116C13.0014 1.23493 12.5544 0.791626 12.0014 0.791626C11.4484 0.791626 11.0014 1.23493 11.0014 1.78116V11.6766H9.00138C8.6224 11.6766 8.27637 11.8884 8.1064 12.2238C7.9384 12.5593 7.9744 12.96 8.20141 13.2599L11.2014 17.2181C11.2144 17.2349 11.2344 17.2408 11.2484 17.2566C11.3144 17.3338 11.3924 17.3932 11.4794 17.4476C11.5154 17.4694 11.5434 17.4981 11.5824 17.5159C11.7104 17.5753 11.8504 17.6139 12.0014 17.6139C12.1525 17.6139 12.2924 17.5753 12.4214 17.5159C12.4594 17.4981 12.4884 17.4694 12.5234 17.4476C12.6104 17.3932 12.6884 17.3338 12.7544 17.2566C12.7674 17.2408 12.7884 17.2349 12.8014 17.2181L15.8014 13.2599C16.0294 12.9601 16.0654 12.5593 15.8964 12.2239Z" fill="#39689E"/>
<path d="M23 14.8433C22.447 14.8433 22 15.2866 22 15.8328V18.8014C22 20.4381 20.654 21.7701 19 21.7701H5.00002C3.34603 21.7701 2.00002 20.4381 2.00002 18.8014V15.8328C2.00002 15.2866 1.55302 14.8433 1.00003 14.8433C0.447 14.8433 0 15.2866 0 15.8328V18.8014C0 21.5296 2.24302 23.7492 5.00002 23.7492H19C21.757 23.7492 24 21.5296 24 18.8014V15.8328C24 15.2866 23.553 14.8433 23 14.8433Z" fill="#39689E"/>
</g>
<defs>
<clipPath id="clip0">
<rect width="24" height="23.7491" fill="white"/>
</clipPath>
</defs>
</svg>
