<svg width="120" height="120" viewBox="0 0 120 120" fill="none" xmlns="http://www.w3.org/2000/svg">
<path d="M56.7998 8H89.4054C91.7876 8.00834 94.1267 8.66129 96.1924 9.89459C98.2582 11.1279 99.9793 12.899 101.186 15.0337L117.489 44.4151C118.682 46.5693 119.31 49.0112 119.31 51.4967C119.31 53.9823 118.682 56.4242 117.489 58.5783L101.186 87.9598C99.9755 90.0885 98.2527 91.8533 96.1872 93.0808C94.1217 94.3083 91.7846 94.9564 89.4054 94.9615H56.7998C54.4093 94.9554 52.0619 94.3003 49.99 93.0609C47.9182 91.8216 46.1939 90.0411 44.9879 87.8959L28.6852 58.5144C27.4922 56.3603 26.8643 53.9183 26.8643 51.4328C26.8643 48.9473 27.4922 46.5053 28.6852 44.3512L44.9879 15.0337C46.1977 12.8944 47.9237 11.1203 49.9953 9.88668C52.0669 8.65311 54.4123 8.00279 56.7998 8V8ZM89.4054 85.3702C90.1768 85.3727 90.9353 85.1643 91.6048 84.7658C92.2743 84.3674 92.8312 83.793 93.2196 83.1002L109.553 53.7187C109.93 53.0207 110.129 52.2335 110.129 51.4328C110.129 50.6321 109.93 49.8449 109.553 49.1468L93.2196 19.7654C92.8312 19.0726 92.2743 18.4982 91.6048 18.0997C90.9353 17.7013 90.1768 17.4929 89.4054 17.4954H56.7998C56.0283 17.4929 55.2698 17.7013 54.6003 18.0997C53.9309 18.4982 53.374 19.0726 52.9856 19.7654L36.5905 49.2428C36.1983 49.9356 35.9915 50.7249 35.9915 51.5287C35.9915 52.3326 36.1983 53.1218 36.5905 53.8146L52.8933 83.1961C53.2817 83.8889 53.8386 84.4633 54.5081 84.8618C55.1775 85.2602 55.9361 85.4686 56.7075 85.4661L89.4054 85.3702Z" fill="#F57307"/>
<path d="M29.9356 25.2837H62.5719C64.959 25.2857 67.3037 25.9394 69.3713 27.1795C71.4388 28.4195 73.1567 30.2023 74.353 32.3493L90.6865 61.7308C91.8795 63.8849 92.5074 66.3269 92.5074 68.8124C92.5074 71.2979 91.8795 73.7399 90.6865 75.894L74.353 105.275C73.1567 107.423 71.4388 109.205 69.3713 110.445C67.3037 111.685 64.959 112.339 62.5719 112.341H29.9356C27.5485 112.339 25.2038 111.685 23.1362 110.445C21.0686 109.205 19.3507 107.423 18.1544 105.275L1.82089 75.894C0.627902 73.7399 0 71.2979 0 68.8124C0 66.3269 0.627902 63.8849 1.82089 61.7308L18.1544 32.3493C19.3507 30.2023 21.0686 28.4195 23.1362 27.1795C25.2037 25.9394 27.5485 25.2857 29.9356 25.2837ZM62.5719 102.75C63.3427 102.749 64.1 102.539 64.769 102.141C65.4379 101.743 65.9953 101.17 66.3861 100.48L82.6889 71.0983C83.0661 70.4003 83.2643 69.6131 83.2643 68.8124C83.2643 68.0118 83.0661 67.2246 82.6889 66.5265L66.3861 37.145C65.9953 36.4544 65.4379 35.8817 64.769 35.4836C64.1 35.0855 63.3427 34.8758 62.5719 34.8751H29.9356C29.1647 34.8757 28.4074 35.0855 27.7384 35.4836C27.0695 35.8817 26.5121 36.4544 26.1213 37.145L9.81851 66.5265C9.43245 67.2215 9.2292 68.0099 9.2292 68.8124C9.2292 69.6149 9.43245 70.4033 9.81851 71.0983L26.1213 100.48C26.5121 101.17 27.0695 101.743 27.7384 102.141C28.4074 102.539 29.1647 102.749 29.9356 102.75H62.5719Z" fill="#397093"/>
</svg>
