<svg width="50" height="56" viewBox="0 0 50 56" fill="none" xmlns="http://www.w3.org/2000/svg">
<path d="M36.4334 54.5847H25.9928C25.1153 54.5847 24.4038 53.8733 24.4038 52.9957C24.4038 52.118 25.1152 51.4067 25.9928 51.4067H36.4334C42.0664 51.4067 46.6494 46.8238 46.6494 41.1907V33.5062C46.6494 32.6287 47.3607 31.9172 48.2384 31.9172C49.116 31.9172 49.8274 32.6286 49.8274 33.5062V41.1907C49.8273 48.5762 43.8187 54.5847 36.4334 54.5847Z" fill="#FFC698"/>
<path d="M47.6556 36.6383C46.4563 36.6383 45.4841 35.6661 45.4841 34.4668V25.7325C45.4841 14.4376 36.2949 5.24845 25 5.24845C13.7051 5.24845 4.51591 14.4376 4.51591 25.7325V34.4668C4.51591 35.6662 3.54368 36.6383 2.34438 36.6383C1.14509 36.6383 0.172852 35.6661 0.172852 34.4668V25.7325C0.172852 19.101 2.7553 12.8663 7.44454 8.17707C12.1338 3.48773 18.3684 0.905273 25 0.905273C31.6316 0.905273 37.8662 3.48773 42.5554 8.17707C47.2447 12.8663 49.8271 19.101 49.8271 25.7325V34.4668C49.8272 35.6661 48.8549 36.6383 47.6556 36.6383Z" fill="#756E78"/>
<path d="M6.8666 42.1184V26.7763C6.8666 25.6794 7.75593 24.79 8.85285 24.79H6.64796C3.07184 24.79 0.172852 27.689 0.172852 31.2651V37.6296C0.172852 41.2057 3.07184 44.1047 6.64796 44.1047H8.85274C7.75582 44.1047 6.8666 43.2154 6.8666 42.1184Z" fill="#665E66"/>
<path d="M13.5603 40.953V27.9417C13.5603 26.2011 12.1493 24.79 10.4087 24.79H9.11042L8.66199 25.371V43.7044L9.11042 44.1048H10.4087C12.1493 44.1047 13.5603 42.6936 13.5603 40.953Z" fill="#397093"/>
<path d="M42.0769 24.79H40.8895L40.4012 25.8042V43.0907L40.8895 44.1048H42.0769C42.6349 43.8198 43.0178 43.2406 43.0178 42.5709V26.3238C43.0178 25.6542 42.635 25.0751 42.0769 24.79Z" fill="#665E66"/>
<path d="M43.352 24.79H40.7454C41.6785 24.79 42.4351 25.5466 42.4351 26.4798V42.4149C42.4351 43.3481 41.6785 44.1047 40.7454 44.1047H43.352C46.9281 44.1047 49.8271 41.2057 49.8271 37.6296V31.2651C49.8272 27.689 46.9281 24.79 43.352 24.79Z" fill="#544F57"/>
<path d="M36 41.1632V28.1519C36 26.4113 37.411 25.0002 39.1516 25.0002H40.4499V44.315H39.1516C37.411 44.3149 36 42.9038 36 41.1632Z" fill="#397093"/>
<path d="M26.8768 56.0002H32.5955C34.2735 56.0002 35.6339 54.6399 35.6339 52.9618C35.6339 51.2837 34.2736 49.9233 32.5955 49.9233H26.8768C25.1988 49.9233 23.8384 51.2836 23.8384 52.9618C23.8384 54.6399 25.1988 56.0002 26.8768 56.0002Z" fill="#F57307"/>
<path d="M39.8283 12.9713C40.0719 12.6137 40.095 12.1483 39.8838 11.7707C38.7777 9.79351 37.3917 7.95688 35.7458 6.3109C32.7251 3.29029 29.0628 1.14577 25.0667 0.000835662C25.065 0.000616912 25.0632 0.000288787 25.0615 7.00373e-05C18.1651 -0.0157893 11.6792 2.66226 6.80458 7.53688C4.79952 9.54194 3.17081 11.802 1.93969 14.283C1.14935 15.8758 1.88883 17.8058 3.53186 18.4859C5.02986 19.1059 6.75022 18.4592 7.47264 17.0078C8.84935 14.242 10.8637 11.8424 13.3987 9.97091C16.7815 7.47355 20.7932 6.1534 25.0001 6.1534C29.2839 6.1534 33.3547 7.51763 36.7726 10.0986C37.8925 10.9444 38.9166 11.9107 39.8283 12.9713Z" fill="#397093"/>
<path d="M48.2779 14.7287C47.0254 12.0747 45.3236 9.66492 43.1955 7.53681C38.3354 2.67662 31.8735 0 25 0C24.6066 0 24.2147 0.00984375 23.8242 0.0273438C28.0772 1.11902 31.9773 3.33123 35.1636 6.51744C37.0822 8.43609 38.6476 10.6138 39.8283 12.9712C40.9746 14.3047 41.9427 15.7875 42.6968 17.3704C43.3998 18.8462 45.1297 19.5195 46.6438 18.9033L46.65 18.9008C48.2882 18.234 49.0327 16.3282 48.2779 14.7287Z" fill="#397093"/>
<path d="M9.11047 44.1047V24.79H8.10673C7.00981 24.79 6.12048 25.6793 6.12048 26.7763V42.1185C6.12048 43.2155 7.00981 44.1048 8.10673 44.1048H9.11047V44.1047Z" fill="#544F57"/>
</svg>
