<svg width="56" height="56" viewBox="0 0 56 56" fill="none" xmlns="http://www.w3.org/2000/svg">
<g clip-path="url(#clip0)">
<path d="M41.9809 50.7952L42.8869 50.2949C50.2752 46.2152 55.1779 38.7562 55.9926 30.3557C56.0818 29.4369 55.3403 28.6503 54.4178 28.6849L54.3758 28.6865C53.4349 28.7218 52.6394 29.3715 52.4187 30.2778L51.5133 33.9956C50.5966 37.7593 48.0535 40.9204 44.5734 42.6219C43.137 43.3242 41.5101 42.1015 41.785 40.5266L42.4997 36.4331C42.6344 35.6611 42.129 34.9224 41.3606 34.7687C40.7771 34.6519 40.1815 34.9048 39.8606 35.4061L34.6816 43.4961L34.769 45.7724L39.7846 50.788L41.9809 50.7952Z" fill="#FFDDCE"/>
<path d="M40.945 34.9935L40.2304 39.0871C40.0323 40.2216 40.8212 41.1732 41.8148 41.3542C41.7489 41.0969 41.7343 40.8179 41.7852 40.5267L42.4998 36.4332C42.6346 35.6612 42.1292 34.9225 41.3607 34.7687C41.2284 34.7422 41.0956 34.7356 40.9655 34.7457C40.9651 34.8276 40.9594 34.9103 40.945 34.9935Z" fill="#FFCBBE"/>
<path d="M54.4409 28.6852C54.4449 28.7611 54.4455 28.8378 54.4378 28.9161C53.6231 37.3165 48.7204 44.7756 41.3321 48.8553L40.4262 49.3556L38.3455 49.3486L39.7847 50.7878L41.981 50.7951L42.8869 50.2949C50.2752 46.2152 55.1779 38.7561 55.9927 30.3557C56.081 29.4446 55.3525 28.6645 54.4409 28.6852Z" fill="#FFCBBE"/>
<path d="M39.4795 55.8865L42.6746 52.6914C43.0067 52.3594 43.0067 51.8209 42.6746 51.4888L34.1346 42.9487C33.8026 42.6167 33.2641 42.6167 32.932 42.9487L29.7369 46.1438C29.6483 46.2323 29.6483 46.3759 29.7369 46.4644L39.1588 55.8864C39.2474 55.9751 39.391 55.9751 39.4795 55.8865Z" fill="#F57307"/>
<path d="M42.6745 51.4887L34.1345 42.9487C33.8024 42.6167 33.264 42.6167 32.9318 42.9487L32.2593 43.6213L39.9505 51.3125C40.2826 51.6446 40.2826 52.183 39.9505 52.5152L37.869 54.5967L39.1587 55.8864C39.2473 55.975 39.3908 55.975 39.4793 55.8864L42.6743 52.6913C43.0066 52.3593 43.0066 51.8209 42.6745 51.4887Z" fill="#E76F0C"/>
<path d="M14.019 50.7952L13.113 50.2949C5.72471 46.2152 0.821883 38.7562 0.0072785 30.3557C-0.0818599 29.4369 0.659574 28.6503 1.58213 28.6849L1.62402 28.6865C2.56484 28.7218 3.36041 29.3715 3.58113 30.2778L4.48651 33.9956C5.40316 37.7593 7.94628 40.9204 11.4264 42.6219C12.8628 43.3242 14.4897 42.1015 14.2147 40.5266L13.5001 36.4331C13.3653 35.6611 13.8708 34.9224 14.6392 34.7687C15.2227 34.6519 15.8182 34.9048 16.1391 35.4061L21.3181 43.4961L21.2307 45.7724L16.2151 50.788L14.019 50.7952Z" fill="#FFDDCE"/>
<path d="M0.145715 30.0404L0.187714 30.0419C1.12853 30.0772 1.92411 30.7269 2.14482 31.6333L3.0502 35.3511C3.96685 39.1148 6.50998 42.2759 9.99009 43.9774C11.1392 44.5391 12.4091 43.8686 12.7307 42.7719C12.3175 42.8702 11.8632 42.8355 11.4264 42.6219C7.94625 40.9205 5.40313 37.7594 4.48648 33.9956L3.5811 30.2778C3.36038 29.3715 2.56481 28.7218 1.62399 28.6865L1.58199 28.6849C0.766512 28.6543 0.0935448 29.2658 0.00976562 30.0428C0.0547176 30.0405 0.099779 30.0386 0.145715 30.0404Z" fill="#FFCBBE"/>
<path d="M16.1391 35.4059C15.8182 34.9046 15.2228 34.6515 14.6391 34.7684C13.9837 34.8997 13.521 35.4568 13.4824 36.0968C13.9697 36.0953 14.4332 36.3402 14.7027 36.7614L19.8817 44.8515L19.7943 47.1277L16.1339 50.7881L16.215 50.7877L21.2306 45.7722L21.318 43.4959L16.1391 35.4059Z" fill="#FFCBBE"/>
<path d="M16.5203 55.8865L13.3252 52.6914C12.9932 52.3594 12.9932 51.8209 13.3252 51.4888L21.8652 42.9487C22.1973 42.6167 22.7357 42.6167 23.0679 42.9487L26.263 46.1438C26.3516 46.2323 26.3516 46.3759 26.263 46.4644L16.841 55.8864C16.7524 55.9751 16.6089 55.9751 16.5203 55.8865Z" fill="#F57307"/>
<path d="M13.9459 53.312L21.6893 45.5687C22.0213 45.2366 22.5598 45.2366 22.8919 45.5687L25.0256 47.7023L26.2632 46.4646C26.3517 46.3761 26.3517 46.2326 26.2632 46.1441L23.0681 42.949C22.7361 42.6169 22.1976 42.6169 21.8655 42.949L13.3255 51.489C12.9934 51.821 12.9934 52.3595 13.3255 52.6916L13.9459 53.312Z" fill="#E76F0C"/>
<path d="M37.4411 7.57312L38.5649 8.1961C38.8523 8.35535 39.0304 8.65798 39.0304 8.98643V11.9267C39.0304 12.2551 38.8522 12.5578 38.5649 12.717L37.4411 13.34C37.2978 13.4195 37.1787 13.5365 37.0966 13.6785L35.3386 16.7234C35.2565 16.8654 35.2148 17.027 35.2176 17.191L35.24 18.4757C35.2457 18.8041 35.0728 19.1098 34.7883 19.274L32.242 20.7442C31.9575 20.9084 31.6064 20.9054 31.3248 20.7362L30.2235 20.0744C30.0829 19.9899 29.922 19.9453 29.7581 19.9453H26.2421C26.0781 19.9453 25.9172 19.9899 25.7767 20.0744L24.6753 20.7362C24.3938 20.9054 24.0426 20.9084 23.7581 20.7442L21.2118 19.274C20.9274 19.1097 20.7544 18.8041 20.7601 18.4757L20.7826 17.191C20.7854 17.027 20.7436 16.8654 20.6616 16.7234L18.9035 13.6785C18.8215 13.5365 18.7025 13.4195 18.559 13.34L17.4352 12.717C17.1479 12.5578 16.9697 12.2551 16.9697 11.9267V8.98643C16.9697 8.65798 17.148 8.35535 17.4352 8.1961L18.559 7.57312C18.7024 7.49361 18.8215 7.37658 18.9035 7.23461L20.6616 4.18969C20.7436 4.04772 20.7854 3.88607 20.7826 3.72212L20.7601 2.43744C20.7544 2.10899 20.9274 1.8033 21.2118 1.63913L23.7581 0.168947C24.0426 0.00467017 24.3938 0.00773259 24.6753 0.176931L25.7767 0.838743C25.9172 0.923178 26.0781 0.967802 26.2421 0.967802H29.7581C29.922 0.967802 30.0829 0.923178 30.2235 0.838743L31.3248 0.176931C31.6064 0.00773259 31.9575 0.00467017 32.242 0.168947L34.7883 1.63913C35.0728 1.80341 35.2457 2.10899 35.24 2.43744L35.2176 3.72212C35.2148 3.88607 35.2565 4.04772 35.3386 4.18969L37.0966 7.23461C37.1787 7.37658 37.2978 7.49361 37.4411 7.57312ZM28 6.19087C25.6441 6.19087 23.7343 8.10073 23.7343 10.4566C23.7343 12.8125 25.6441 14.7223 28 14.7223C30.3559 14.7223 32.2658 12.8125 32.2658 10.4566C32.2658 8.10073 30.3559 6.19087 28 6.19087Z" fill="#397093"/>
<path d="M49.9203 21.2477L50.6995 21.6796C50.8987 21.7901 51.0223 21.9998 51.0223 22.2275V24.2662C51.0223 24.494 50.8987 24.7038 50.6995 24.8142L49.9203 25.2461C49.8209 25.3012 49.7383 25.3824 49.6815 25.4808L48.4625 27.592C48.4056 27.6905 48.3766 27.8026 48.3786 27.9162L48.3941 28.8069C48.3981 29.0347 48.2782 29.2466 48.081 29.3605L46.3155 30.3798C46.1183 30.4937 45.8748 30.4916 45.6795 30.3742L44.9159 29.9154C44.8184 29.8569 44.7069 29.826 44.5932 29.826H42.1553C42.0417 29.826 41.9301 29.8569 41.8327 29.9154L41.069 30.3742C40.8738 30.4915 40.6304 30.4937 40.433 30.3798L38.6676 29.3605C38.4704 29.2466 38.3504 29.0347 38.3544 28.8069L38.37 27.9162C38.3719 27.8026 38.3429 27.6905 38.2861 27.592L37.0671 25.4808C37.0102 25.3824 36.9277 25.3012 36.8282 25.2461L36.0491 24.8142C35.8499 24.7037 35.7263 24.494 35.7263 24.2662V22.2275C35.7263 21.9998 35.8499 21.7899 36.0491 21.6796L36.8282 21.2477C36.9277 21.1926 37.0102 21.1114 37.0671 21.013L38.2861 18.9018C38.3429 18.8033 38.3719 18.6912 38.37 18.5776L38.3544 17.6869C38.3505 17.4591 38.4704 17.2472 38.6676 17.1333L40.433 16.114C40.6302 16.0001 40.8738 16.0022 41.069 16.1195L41.8327 16.5784C41.9301 16.6369 42.0417 16.6678 42.1553 16.6678H44.5932C44.7069 16.6678 44.8184 16.6369 44.9159 16.5784L45.6795 16.1195C45.8748 16.0023 46.1182 16.0001 46.3155 16.114L48.081 17.1333C48.2782 17.2472 48.3982 17.4591 48.3941 17.6869L48.3786 18.5776C48.3766 18.6912 48.4056 18.8033 48.4625 18.9018L49.6815 21.013C49.7383 21.1114 49.8209 21.1926 49.9203 21.2477ZM43.3742 20.2893C41.7407 20.2893 40.4165 21.6134 40.4165 23.2469C40.4165 24.8804 41.7407 26.2045 43.3742 26.2045C45.0077 26.2045 46.3318 24.8804 46.3318 23.2469C46.3318 21.6134 45.0077 20.2893 43.3742 20.2893Z" fill="#397093"/>
<path d="M19.1715 21.2478L19.9507 21.6797C20.1499 21.7902 20.2735 22 20.2735 22.2277V24.2664C20.2735 24.4941 20.1499 24.704 19.9507 24.8143L19.1715 25.2462C19.0721 25.3014 18.9895 25.3825 18.9327 25.481L17.7137 27.5922C17.6568 27.6906 17.6279 27.8027 17.6298 27.9164L17.6454 28.8071C17.6493 29.0348 17.5294 29.2468 17.3322 29.3606L15.5667 30.38C15.3695 30.4938 15.126 30.4917 14.9307 30.3744L14.1671 29.9156C14.0697 29.857 13.9581 29.8261 13.8445 29.8261H11.4065C11.2929 29.8261 11.1813 29.857 11.0839 29.9156L10.3203 30.3744C10.125 30.4916 9.88157 30.4938 9.68426 30.38L7.91878 29.3606C7.72158 29.2468 7.6016 29.0348 7.60564 28.8071L7.62117 27.9164C7.62314 27.8027 7.59416 27.6906 7.53729 27.5922L6.31833 25.4811C6.26146 25.3826 6.17888 25.3015 6.07946 25.2464L5.3003 24.8144C5.10113 24.704 4.97754 24.4942 4.97754 24.2665V22.2278C4.97754 22.0001 5.10113 21.7902 5.3003 21.6798L6.07946 21.2479C6.17888 21.1928 6.26146 21.1116 6.31833 21.0132L7.53729 18.902C7.59416 18.8036 7.62314 18.6915 7.62117 18.5778L7.60564 17.6871C7.60171 17.4594 7.72158 17.2474 7.91878 17.1336L9.68426 16.1142C9.88146 16.0004 10.125 16.0024 10.3203 16.1198L11.0839 16.5786C11.1813 16.6371 11.2929 16.6681 11.4065 16.6681H13.8445C13.9581 16.6681 14.0697 16.6371 14.1671 16.5786L14.9307 16.1198C15.126 16.0025 15.3694 16.0004 15.5667 16.1142L17.3322 17.1336C17.5294 17.2474 17.6494 17.4594 17.6454 17.6871L17.6298 18.5778C17.6279 18.6915 17.6568 18.8036 17.7137 18.902L18.9327 21.0132C18.9895 21.1115 19.0721 21.1927 19.1715 21.2478ZM12.6255 20.2894C10.992 20.2894 9.66786 21.6136 9.66786 23.247C9.66786 24.8805 10.992 26.2047 12.6255 26.2047C14.259 26.2047 15.5831 24.8805 15.5831 23.247C15.5831 21.6136 14.259 20.2894 12.6255 20.2894Z" fill="#397093"/>
</g>
<defs>
<clipPath id="clip0">
<rect width="56" height="56" fill="white"/>
</clipPath>
</defs>
</svg>
