<svg width="56" height="56" viewBox="0 0 56 56" fill="none" xmlns="http://www.w3.org/2000/svg">
<path d="M40.6453 24.8387V25.4725C40.6453 26.2492 40.7705 27.0207 41.016 27.7575L42.4517 32.0644H45.1614V22.1289H43.3549C41.8584 22.129 40.6453 23.3421 40.6453 24.8387Z" fill="#5A4146"/>
<path d="M53.0124 26.7149L51.484 32.0645L44.2581 25.7419C43.2604 25.7419 42.4517 24.9331 42.4517 23.9355C42.4517 22.439 43.6648 21.2258 45.1613 21.2258H51.4839C52.4816 21.2258 53.2903 22.0347 53.2903 23.0323V24.73C53.2904 25.4012 53.1968 26.0693 53.0124 26.7149Z" fill="#694B4B"/>
<path d="M49.6769 34.7747H44.2576V38.7722H49.6769V34.7747Z" fill="#E6AF78"/>
<path d="M44.2581 36.4333C45.0958 36.7737 46.0093 36.9653 46.9677 36.9653C47.9262 36.9653 48.8397 36.7737 49.6774 36.4333V34.7742H44.2581V36.4333Z" fill="#D29B6E"/>
<path d="M54.0347 38.2104L49.6772 36.9654L46.9677 38.7635L44.2581 36.9653L39.9008 38.2104C38.7375 38.5427 37.9355 39.606 37.9355 40.8158V47.4194C37.9355 47.9183 38.3399 48.3226 38.8388 48.3226H55.0968C55.5957 48.3226 56 47.9183 56 47.4194V40.8158C56 39.6059 55.198 38.5427 54.0347 38.2104Z" fill="#ADDFFF"/>
<path d="M47.8709 48.3225H46.0645L46.5161 38.7717H47.4193L47.8709 48.3225Z" fill="#F57307"/>
<path d="M46.9677 35.6774C43.9746 35.6774 41.5483 33.251 41.5483 30.258V29.1998C41.5483 28.7208 41.7387 28.2613 42.0774 27.9225L43.7153 26.2846C44.0621 25.9377 44.5364 25.7383 45.0266 25.7538C47.9139 25.8449 50.4695 26.4634 51.8666 27.8278C52.2086 28.1619 52.3871 28.6291 52.3871 29.1071V30.258C52.3871 33.2511 49.9607 35.6774 46.9677 35.6774Z" fill="#F7CE9D"/>
<path d="M44.258 29.424C44.258 28.382 45.133 27.5539 46.1728 27.6201C47.9962 27.7365 50.7019 28.0412 52.3619 28.8397C52.3078 28.4586 52.144 28.0989 51.8666 27.8278C50.4695 26.4634 47.9139 25.8449 45.0266 25.7538L45.0265 25.7539V25.7538C44.5364 25.7383 44.062 25.9378 43.7153 26.2846L42.0775 27.9223C41.7387 28.2611 41.5483 28.7206 41.5483 29.1997V30.2579C41.5483 32.7294 43.2044 34.8102 45.4662 35.4619C44.7133 34.5331 44.2581 33.354 44.2581 32.0644L44.258 29.424Z" fill="#E6AF78"/>
<path d="M52.3872 43.5071C52.3872 42.7884 52.6727 42.0993 53.1808 41.5911L55.5058 39.2661C55.8166 39.7103 56.0001 40.245 56.0001 40.8158V47.4195C56.0001 47.9183 55.5957 48.3227 55.0969 48.3227H52.3872V43.5071Z" fill="#DCF1FF"/>
<path d="M47.4193 40.5782H46.5161C46.2667 40.5782 46.0645 40.3759 46.0645 40.1266V38.7717H47.8709V40.1266C47.8709 40.3759 47.6688 40.5782 47.4193 40.5782Z" fill="#CA6818"/>
<path d="M46.9676 38.7635L45.4367 39.9328C45.173 40.1343 44.7917 40.0536 44.6323 39.7624L43.259 37.2545L43.8118 36.4113C43.9344 36.2243 44.1957 36.1924 44.3597 36.3445L46.9676 38.7635Z" fill="#DCF1FF"/>
<path d="M46.9675 38.7636L48.4985 39.9331C48.7622 40.1346 49.1434 40.0538 49.3028 39.7627L50.6761 37.2547L50.1233 36.4115C50.0007 36.2245 49.7394 36.1927 49.5755 36.3447L46.9675 38.7636Z" fill="#DCF1FF"/>
<path d="M16.168 35.3003C15.3962 33.2552 14.784 29.7396 14.6517 27.9092C14.4002 24.426 11.7753 21.5867 8.22695 21.5867C4.6786 21.5867 2.05371 24.4262 1.80215 27.9092C1.66991 29.7395 1.05774 33.2552 0.285883 35.3003C0.115805 35.7512 0.312133 36.2483 0.756087 36.4495C1.58318 36.8244 3.34663 37.5587 5.47343 37.8447H10.9804C13.0972 37.558 14.873 36.8233 15.6977 36.4495C16.1418 36.2483 16.3381 35.7512 16.168 35.3003Z" fill="#5A4146"/>
<path d="M15.6979 36.4495C16.1418 36.2483 16.3382 35.7512 16.168 35.3003C15.3963 33.2552 14.784 29.7396 14.6519 27.9092C14.4004 24.426 11.7754 21.5867 8.22718 21.5867C8.21821 21.5867 8.20936 21.5867 8.20039 21.5868C5.47771 21.5978 4.51554 25.311 6.85934 26.6964C7.00011 26.7797 7.09034 26.8197 7.09034 26.8197L9.1432 37.8447H10.9806C13.0974 37.5578 14.8732 36.8231 15.6979 36.4495Z" fill="#694B4B"/>
<path d="M14.7602 39.6581L11.8372 38.1968C11.2252 37.8907 10.8385 37.2651 10.8386 36.5809L10.8388 33.8711H5.41931V36.581C5.41931 37.2652 5.03278 37.8906 4.42072 38.1967L1.49778 39.6581C0.579797 40.1171 0 41.0553 0 42.0815V47.4193C0 47.918 0.404359 48.3225 0.903219 48.3225H15.3548C15.8537 48.3225 16.258 47.918 16.258 47.4193V42.0817C16.258 41.0553 15.6781 40.1171 14.7602 39.6581Z" fill="#E6AF78"/>
<path d="M8.12915 37.4837C9.10171 37.4837 10.0333 37.2832 10.8873 36.9264C10.8648 36.8125 10.8387 36.6993 10.8387 36.5806L10.8389 33.8708H5.41939V36.5807C5.41939 36.7001 5.39325 36.8138 5.37061 36.9281C6.22515 37.2831 7.15626 37.4837 8.12915 37.4837Z" fill="#D29B6E"/>
<path d="M14.7602 39.658L12.6779 38.6168C11.7123 40.1078 10.0377 41.0967 8.12908 41.0967C6.22048 41.0967 4.54573 40.1078 3.58017 38.6167L1.49789 39.658C0.579906 40.1169 0 41.0551 0 42.0814V47.4191C0 47.9179 0.404359 48.3223 0.903219 48.3223H15.3548C15.8537 48.3223 16.258 47.9179 16.258 47.4191V42.0815C16.258 41.0551 15.6781 40.1169 14.7602 39.658Z" fill="#ADDFFF"/>
<path d="M8.1292 35.6773C5.37383 35.6773 3.09883 33.6211 2.75485 30.9594C2.70497 30.5738 2.89036 30.1956 3.23752 30.0205C3.65336 29.8108 4.25766 29.457 4.83625 28.9408C5.48058 28.3659 5.85858 27.7596 6.07208 27.3146C6.25594 26.9313 6.67856 26.7146 7.09047 26.8197C10.2707 27.6308 12.4357 29.2853 13.2213 29.9608C13.4321 30.1422 13.5537 30.4096 13.532 30.687C13.3131 33.4793 10.9779 35.6773 8.1292 35.6773Z" fill="#F7CE9D"/>
<path d="M13.2211 29.9608C12.4357 29.2853 10.2705 27.6308 7.09033 26.8197C6.67843 26.7146 6.2558 26.9313 6.07194 27.3146C5.91029 27.6517 5.64308 28.0811 5.2466 28.5195C5.24649 28.5206 5.24616 28.5214 5.24605 28.5225C5.123 28.662 4.99197 28.8018 4.83622 28.9409C4.25763 29.4573 3.65333 29.8109 3.23749 30.0206C2.89033 30.1958 2.70505 30.574 2.75482 30.9596C3.0638 33.35 4.93433 35.2527 7.30755 35.6156C6.22616 34.88 5.41952 33.8682 5.41952 32.0646V30.7766C5.62471 30.6252 5.83132 30.4741 6.03891 30.2888C6.54094 29.8408 6.97921 29.3227 7.33063 28.7649C9.76346 29.5241 11.4128 30.7886 12.0381 31.3263C12.2093 31.4763 12.6341 31.8679 13.1311 32.3341C13.3449 31.8195 13.4864 31.2674 13.5318 30.6872C13.5535 30.4097 13.432 30.1423 13.2211 29.9608Z" fill="#E6AF78"/>
<path d="M0.550594 40.4534C0.202672 40.9152 0 41.4816 0 42.0815V47.4192C0 47.9181 0.404359 48.3225 0.903219 48.3225H3.61288V43.7714C3.61288 43.2226 3.36339 42.7035 2.93486 42.3608L0.550594 40.4534Z" fill="#DCF1FF"/>
<path d="M40.9767 38.4254L33.4194 35.6772L28.0001 37.4838L22.5808 35.6774L15.0235 38.4255C13.5957 38.9447 12.6453 40.3016 12.6453 41.8208V47.4193C12.6453 47.9181 13.0496 48.3225 13.5485 48.3225H42.4517C42.9506 48.3225 43.3549 47.9181 43.3549 47.4193V41.8208C43.3549 40.3015 42.4046 38.9446 40.9767 38.4254Z" fill="#397093"/>
<path d="M27.0538 39.2903L26.1936 48.3224H29.8065L28.9463 39.2903H27.0538Z" fill="#F57307"/>
<path d="M28.9483 40.5313H27.0517C26.7025 40.5313 26.4194 40.2482 26.4194 39.899V37.4839H29.5805V39.899C29.5806 40.2481 29.2975 40.5313 28.9483 40.5313Z" fill="#CA6818"/>
<path d="M42.3826 39.3591C42.9925 40.0137 43.3549 40.8856 43.3549 41.8207V47.4192C43.3549 47.918 42.9505 48.3224 42.4516 48.3224H37.9355V45.3028C37.9355 44.3445 38.3162 43.4256 38.9938 42.7481L42.3826 39.3591Z" fill="#397093"/>
<path d="M37.9355 17.0502V9.48368C37.9355 8.48596 37.1267 7.67725 36.1291 7.67725H25.2903C21.2997 7.67725 18.0645 10.9123 18.0645 14.9031V17.0502C18.0645 18.0211 18.221 18.9855 18.528 19.9065L18.8287 20.8085C18.9208 21.0848 18.9677 21.3741 18.9677 21.6653V22.1289H37.0322V21.6653C37.0322 21.3741 37.0791 21.0848 37.1712 20.8085L37.4719 19.9065C37.779 18.9854 37.9355 18.021 37.9355 17.0502Z" fill="#5A4146"/>
<path d="M22.5806 11.3466C22.5806 13.3731 24.2234 15.0159 26.2499 15.0159H26.7579L27.0031 22.1287H37.0321V21.6652C37.0321 21.3739 37.079 21.0847 37.1711 20.8084L37.4718 19.9064C37.7788 18.9854 37.9353 18.0209 37.9353 17.0501V9.48368C37.9353 8.48596 37.1265 7.67725 36.1288 7.67725H26.2499C24.2234 7.67725 22.5806 9.32006 22.5806 11.3466Z" fill="#694B4B"/>
<path d="M33.4196 29.3552H22.5806V37.484H33.4196V29.3552Z" fill="#E6AF78"/>
<path d="M22.5807 32.4089C24.1762 33.3333 26.0235 33.8708 28 33.8708C29.9765 33.8708 31.8239 33.3333 33.4193 32.4089V29.3547H22.5806L22.5807 32.4089Z" fill="#D29B6E"/>
<path d="M27.9999 37.4837L25.1192 40.3644C24.732 40.7516 24.0921 40.7079 23.7611 40.2718L20.7742 36.336L21.5554 34.6896C21.786 34.2037 22.3873 34.0257 22.8452 34.3079L27.9999 37.4837Z" fill="#397093"/>
<path d="M28 37.4837L30.8807 40.3644C31.2679 40.7516 31.9079 40.7079 32.2388 40.2718L35.2257 36.336L34.4445 34.6896C34.2139 34.2037 33.6126 34.0257 33.1547 34.3079L28 37.4837Z" fill="#397093"/>
<path d="M28.0001 32.0645C23.0117 32.0645 18.9678 28.0206 18.9678 23.0322V21.974C18.9678 21.495 19.1581 21.0355 19.4968 20.6966L20.2451 19.9484C20.5838 19.6097 20.7741 19.1502 20.7741 18.671V16.5058C20.7741 16.0876 21.055 15.7242 21.462 15.6281C23.5982 15.1235 30.2456 13.9284 34.7695 17.2556C35.0633 17.4716 35.2257 17.8265 35.2257 18.1912V18.671C35.2257 19.1501 35.416 19.6096 35.7548 19.9484L36.503 20.6966C36.8417 21.0354 37.032 21.4949 37.032 21.974V23.0322C37.0324 28.0206 32.9884 32.0645 28.0001 32.0645Z" fill="#F7CE9D"/>
<path d="M34.7696 17.2555C31.5879 14.9155 27.3615 14.8142 24.3872 15.1345C23.1326 15.2696 22.0959 15.4784 21.4622 15.628C21.0552 15.7242 20.7743 16.0875 20.7743 16.5058V18.6709C20.7743 19.15 20.584 19.6095 20.2452 19.9484L19.4969 20.6966C19.1581 21.0354 18.9678 21.4949 18.9678 21.9741V23.0322C18.9678 27.6504 22.4361 31.4524 26.9086 31.9922C25.3501 30.3692 24.3871 28.1697 24.3871 25.7418V19.1399C24.3871 18.2245 25.0677 17.4595 25.9759 17.3457C28.1435 17.0739 32.1136 16.9105 35.2257 18.6711V18.1911C35.2259 17.8265 35.0632 17.4714 34.7696 17.2555Z" fill="#E6AF78"/>
<path d="M13.6175 39.3591C13.0076 40.0137 12.6453 40.8856 12.6453 41.8207V47.4192C12.6453 47.918 13.0496 48.3224 13.5485 48.3224H18.0646V45.3028C18.0646 44.3445 17.6839 43.4256 17.0064 42.7481L13.6175 39.3591Z" fill="#397093"/>
</svg>
