<svg width="56" height="56" viewBox="0 0 56 56" fill="none" xmlns="http://www.w3.org/2000/svg">
  <path d="M33.224 39.2607V47.2588C33.224 47.7192 32.8511 48.0921 32.3906 48.0921H23.6096C23.1492 48.0921 22.7751 47.7192 22.7751 47.2588V39.2607C22.7751 38.8003 23.1491 38.4263 23.6096 38.4263H32.3906C32.851 38.4264 33.224 38.8003 33.224 39.2607Z" fill="#A2A7B2"/>
  <path d="M33.2239 39.2607V47.2588C33.2239 47.7192 32.851 48.0921 32.3905 48.0921H28V38.4263H32.3905C32.8509 38.4264 33.2239 38.8003 33.2239 39.2607Z" fill="#989CA6"/>
  <path d="M42.0028 51.1571C41.736 51.7783 41.1313 52.15 40.496 52.15C40.2794 52.15 40.0597 52.1074 39.8486 52.0166L39.8278 52.0079C36.0737 50.3982 32.0976 49.5813 28.0121 49.5813H28.0001C23.9114 49.5824 19.9331 50.4015 16.1757 52.0166C15.3435 52.3742 14.379 51.9893 14.0214 51.1571C13.6639 50.3239 14.0477 49.3593 14.8809 49.0018C19.0495 47.2106 23.463 46.3019 28.0001 46.3008H28.0121C32.546 46.3008 36.9562 47.2062 41.1226 48.993L41.1445 49.0018C41.9766 49.3593 42.3615 50.3249 42.0028 51.1571Z" fill="#5C5F65"/>
  <path d="M56 5.85973V38.0579C56 39.1656 55.099 40.0667 53.9901 40.0667H2.00878C0.901031 40.0667 0 39.1655 0 38.0578V5.85973C0 4.75198 0.901031 3.84985 2.00878 3.84985H53.99C55.099 3.84974 56 4.75198 56 5.85973Z" fill="#E7EEFD"/>
  <path d="M56 5.85959V38.0577C56 39.1655 55.099 40.0665 53.9901 40.0665H28V3.84961H53.9901C55.099 3.84961 56 4.75184 56 5.85959Z" fill="#DBE2F1"/>
  <path d="M33.165 33.9703C32.2591 33.9703 31.5247 33.2359 31.5247 32.33V25.9992C31.5247 25.0933 32.2591 24.3589 33.165 24.3589C34.0708 24.3589 34.8053 25.0933 34.8053 25.9992V32.33C34.8053 33.236 34.0708 33.9703 33.165 33.9703Z" fill="#7FBAE0"/>
  <path d="M38.3046 33.9703C37.3988 33.9703 36.6643 33.2359 36.6643 32.33V15.0639C36.6643 14.158 37.3988 13.4236 38.3046 13.4236C39.2104 13.4236 39.9449 14.158 39.9449 15.0639V32.33C39.9449 33.236 39.2104 33.9703 38.3046 33.9703Z" fill="#7FBAE0"/>
  <path d="M43.529 33.9705C42.6231 33.9705 41.8887 33.236 41.8887 32.3302V19.4381C41.8887 18.5323 42.6231 17.7979 43.529 17.7979C44.4348 17.7979 45.1693 18.5323 45.1693 19.4381V32.3302C45.1693 33.2361 44.4349 33.9705 43.529 33.9705Z" fill="#7FBAE0"/>
  <path d="M15.3599 31.2568L2.80054 43.8162C2.48019 44.1365 2.06019 44.2973 1.64029 44.2973C1.27947 44.2973 0.919623 44.1792 0.622232 43.943C0.573014 43.9037 0.525982 43.8621 0.480045 43.8162C-0.159689 43.1764 -0.159689 42.1376 0.480045 41.4967L13.0405 28.9363C13.6813 28.2966 14.7201 28.2966 15.3599 28.9363C15.3664 28.9429 15.3719 28.9484 15.3774 28.9549C16.0006 29.5969 15.994 30.6226 15.3599 31.2568Z" fill="#F57307"/>
  <path d="M15.3599 31.2571L2.80063 43.8164C2.48027 44.1368 2.06027 44.2976 1.64038 44.2976C1.27955 44.2976 0.919705 44.1794 0.622314 43.9433L15.3774 28.9553C16.0007 29.5971 15.9941 30.6229 15.3599 31.2571Z" fill="#F57307"/>
  <path d="M28.9424 24.114C28.9424 29.4067 24.6372 33.712 19.3444 33.712C16.9288 33.712 14.7199 32.8153 13.0314 31.3379C12.9833 31.2963 12.9363 31.2537 12.8892 31.2099C10.9602 29.4537 9.74756 26.9222 9.74756 24.114C9.74756 18.8223 14.0528 14.5171 19.3444 14.5171C22.168 14.5171 24.7115 15.743 26.4677 17.6894C26.5027 17.7266 26.5355 17.7638 26.5683 17.801C26.6854 17.9344 26.798 18.07 26.9062 18.2099C28.1814 19.8394 28.9424 21.8886 28.9424 24.114Z" fill="#7FBAE0"/>
  <path d="M48.757 33.9701C47.8512 33.9701 47.1167 33.2357 47.1167 32.3298V23.8119C47.1167 22.9061 47.8512 22.1716 48.757 22.1716C49.6628 22.1716 50.3973 22.9061 50.3973 23.8119V32.3298C50.3973 33.2358 49.6629 33.9701 48.757 33.9701Z" fill="#7FBAE0"/>
  <path d="M28.9425 24.114C28.9425 29.4068 24.6373 33.712 19.3445 33.712C16.9289 33.712 14.7199 32.8154 13.0315 31.3379L26.4678 17.6895C26.5028 17.7266 26.5356 17.7638 26.5684 17.801C26.6854 17.9345 26.7981 18.0701 26.9063 18.21C28.1815 19.8394 28.9425 21.8887 28.9425 24.114Z" fill="#397093"/>
  <path d="M42.0027 51.1572C41.7358 51.7784 41.1312 52.1502 40.4959 52.1502C40.2793 52.1502 40.0596 52.1075 39.8485 52.0167L39.8277 52.008C36.0736 50.3983 32.0975 49.5814 28.012 49.5814H28V46.3008H28.012C32.5458 46.3008 36.9561 47.2062 41.1225 48.993L41.1443 49.0018C41.9765 49.3595 42.3614 50.325 42.0027 51.1572Z" fill="#494949"/>
</svg>
