<svg width="290" height="294" viewBox="0 0 290 294" fill="none" xmlns="http://www.w3.org/2000/svg">
<g clip-path="url(#clip0)">
<path d="M54.1082 0C43.0625 0 34.1174 8.95431 34.1174 20V248.059C34.1174 259.105 43.0717 268.059 54.1174 268.059H68.2351C71.7913 262.936 128.649 181.023 132.206 175.9L136.47 87.9498L132.206 0C130.225 0 82.2374 0 54.1082 0Z" fill="#4888B1"/>
<path d="M230.294 0C227.527 0 134.972 0 132.205 0V175.9C137.655 168.049 224.845 42.4386 230.294 34.5882C230.294 30.4036 230.294 4.21227 230.294 0Z" fill="#397093"/>
<path d="M88.2117 34.5883C77.166 34.5883 68.2347 43.5426 68.2347 54.5883V274C68.2347 285.046 77.189 294 88.2347 294H162.058L170.588 164.294L162.058 34.5883C160.184 34.5883 115.223 34.5883 88.2117 34.5883Z" fill="#F2F9FF"/>
<path d="M162.059 34.5883V294H199.611L211.908 247.498L255.882 237.052C255.882 237.052 255.882 45.8306 255.882 34.5883C253.236 34.5883 164.704 34.5883 162.059 34.5883Z" fill="#E3EDF8"/>
<path d="M221.765 147C221.765 151.684 217.976 155.481 213.292 155.481C197.29 155.481 174.535 155.481 161.054 155.481C156.37 155.481 152.582 151.684 152.582 147C152.582 142.316 156.379 138.519 161.062 138.519H213.284C217.968 138.519 221.765 142.316 221.765 147Z" fill="#5896BE"/>
<path d="M221.765 181.865C221.765 186.549 217.976 190.346 213.292 190.346C197.29 190.346 174.535 190.346 161.054 190.346C156.37 190.346 152.582 186.549 152.582 181.865C152.582 177.182 156.379 173.385 161.063 173.385H213.284C217.968 173.385 221.765 177.182 221.765 181.865Z" fill="#5896BE"/>
<path d="M199.611 294C206.454 287.075 249.024 243.992 255.882 237.052C240.634 237.052 208.595 237.052 199.611 237.052V294Z" fill="#5896BE"/>
<path d="M162.058 155.647C149.308 155.647 125.125 155.647 110.989 155.647C106.213 155.647 102.353 151.776 102.353 147C102.353 142.224 106.224 138.353 111 138.353H162.058L170.588 147L162.058 155.647Z" fill="#B4D3EF"/>
<path d="M162.059 49.9423L130.784 63.9095L133.391 80.4858C135.874 93.9768 143.43 106 154.501 114.077L162.087 119.673L169.315 114.411C180.533 106.337 188.196 94.2291 190.7 80.6226L193.333 63.9095L162.059 49.9423ZM161 94.2548C160.347 94.9083 159.462 95.2755 158.539 95.2755C157.616 95.2755 156.731 94.9083 156.079 94.2548L145.639 83.7993L150.561 78.8691L158.54 86.8602L176.958 68.4136L181.879 73.3421L161 94.2548Z" fill="#4E6BA6"/>
<path d="M162.058 190.235C149.308 190.235 125.125 190.235 110.989 190.235C106.213 190.235 102.353 186.364 102.353 181.588C102.353 176.813 106.224 172.941 111 172.941H162.058L170.588 181.588L162.058 190.235Z" fill="#B4D3EF"/>
<path d="M162.058 216.176C162.058 220.952 158.188 224.824 153.412 224.824C140.221 224.824 122.357 224.824 110.989 224.824C106.213 224.824 102.353 220.952 102.353 216.176C102.353 211.401 106.224 207.529 111 207.529H153.411C158.187 207.529 162.058 211.401 162.058 216.176Z" fill="#F57307"/>
<path d="M164.506 51.035C162.948 50.3396 161.169 50.3396 159.612 51.035L134.978 62.0364C132.503 63.1418 131.077 65.7693 131.498 68.447L133.391 80.4858C135.874 93.9768 143.43 106 154.501 114.077L158.549 117.063C160.655 118.617 163.526 118.626 165.642 117.085L169.315 114.411C180.533 106.337 188.196 94.2291 190.7 80.6226L192.618 68.4483C193.04 65.77 191.614 63.1415 189.138 62.0358L164.506 51.035ZM161 94.2548C160.347 94.9083 159.462 95.2755 158.539 95.2755C157.616 95.2755 156.731 94.9083 156.079 94.2548L148.096 86.26C146.739 84.9004 146.739 82.6982 148.096 81.3383C149.457 79.9753 151.665 79.9751 153.026 81.3379L154.551 82.8649C156.753 85.0705 160.327 85.0704 162.529 82.8648L174.494 70.8817C175.854 69.5193 178.062 69.5193 179.422 70.8817C180.78 72.2412 180.78 74.4431 179.422 75.8026L161 94.2548Z" fill="#397093"/>
<rect opacity="0.3" x="163.007" y="45.2307" width="40.7516" height="81.9808" fill="#E3EDF8"/>
</g>
<defs>
<clipPath id="clip0">
<rect width="290" height="294" fill="white"/>
</clipPath>
</defs>
</svg>
