<svg width="238" height="111" viewBox="0 0 238 111" fill="none" xmlns="http://www.w3.org/2000/svg">
<path d="M99.7172 51.1118H96V67.6645H99.7172V60.9539H107.871V67.6645H111.468V51.1118H107.871V57.8224H99.7172V51.1118ZM128.256 60.6184C128.256 63.3026 126.817 64.7566 124.179 64.7566C121.541 64.7566 120.102 63.3026 120.102 60.5066V51.1118H116.505V60.6184C116.505 65.3158 119.262 68 124.179 68C129.095 68 131.853 65.3158 131.853 60.5066V51.1118H128.256V60.6184ZM163.029 51.1118L158.952 62.5197L154.995 51.1118H151.158L157.394 67.6645H160.391L164.468 56.8158L168.425 67.6645H171.543L177.658 51.1118H173.941L169.984 62.5197L165.907 51.1118H163.029ZM190.729 57.4868H184.133V54.1316H193.726V51.1118H180.536V67.6645H194.086V64.6447H184.133V60.5066H190.729V57.4868ZM198.403 51.1118H202V67.6645H198.403V51.1118ZM147.081 64.1974L148.64 67.6645H152.477L144.683 51.1118L144.563 51H141.446L133.652 67.6645H137.369L138.928 64.4211L139.048 64.1974H147.081ZM143.005 55.25L145.523 60.8421L145.643 61.1776H140.127L140.247 60.8421L143.005 55.25Z" fill="#CECECE"/>
<path d="M56.821 65.5232C56.821 65.5232 56.9388 65.4084 56.821 65.4084C51.405 53.9265 43.9875 45.0854 43.9875 45.0854C43.9875 45.0854 39.9843 48.7596 40.2198 52.5486C40.3376 55.4191 42.5746 57.0266 42.5746 57.0266C46.1068 60.3563 54.584 64.6046 56.5856 65.5232H56.821ZM55.4082 68.3937C55.4082 68.2788 55.1727 68.2788 55.1727 68.2788L41.044 68.7381C42.5746 71.379 45.1649 73.4457 47.8729 72.8716C49.7567 72.4123 53.9953 69.5419 55.2904 68.6233C55.5259 68.3937 55.4082 68.3937 55.4082 68.3937ZM55.6437 67.1307C55.7614 67.0158 55.6437 66.901 55.6437 66.901C49.4035 62.7675 37.3941 56.5673 37.3941 56.5673C36.3344 59.8971 37.7473 62.5379 37.7473 62.5379C39.2779 65.7528 42.2214 66.6714 42.2214 66.6714C43.5165 67.2455 44.9294 67.2455 44.9294 67.2455H55.5259C55.6437 67.2455 55.6437 67.1307 55.6437 67.1307ZM56.5856 39.1148C55.9969 39.1148 54.3485 39.5741 54.3485 39.5741C50.5809 40.4926 49.7567 43.8224 49.7567 43.8224C49.0503 45.8891 49.7567 48.1855 49.7567 48.1855C51.0518 53.582 57.1743 62.5379 58.4694 64.375L58.5871 64.4898C58.7049 64.4898 58.7049 64.375 58.7049 64.375C60.8242 44.2817 56.5856 39.1148 56.5856 39.1148ZM61.2951 64.375C61.4129 64.375 61.5306 64.2602 61.5306 64.2602C62.9435 62.3083 68.9482 53.4672 70.2433 48.0707C70.2433 48.0707 70.9497 45.4299 70.2433 43.7076C70.2433 43.7076 69.3014 40.3778 65.5337 39.4593C65.5337 39.4593 64.4741 39.2296 63.2967 39C63.2967 39 59.0581 44.2817 61.1774 64.1454C61.1774 64.375 61.2951 64.375 61.2951 64.375ZM64.5918 68.2788C64.5918 68.2788 64.4741 68.2788 64.4741 68.3937V68.6233C65.887 69.5419 69.8901 72.4123 71.8917 72.8716C71.8917 72.8716 75.5416 74.1346 78.7205 68.7381L64.5918 68.2788ZM82.6059 56.4525C82.6059 56.4525 70.5965 62.7675 64.3563 66.901C64.3563 66.901 64.2386 67.0158 64.2386 67.1307C64.2386 67.1307 64.2386 67.2455 64.3563 67.2455H75.1884C75.1884 67.2455 76.248 67.2455 77.6609 66.6714C77.6609 66.6714 80.6044 65.7528 82.2527 62.4231C82.2527 62.3083 83.6656 59.6674 82.6059 56.4525ZM63.179 65.5232C63.179 65.5232 63.2967 65.638 63.4144 65.5232C65.416 64.4898 73.8932 60.3563 77.4254 57.0266C77.4254 57.0266 79.6624 55.3043 79.7802 52.5486C80.0157 48.6448 76.0125 45.0854 76.0125 45.0854C76.0125 45.0854 68.595 53.6968 63.179 65.2935C63.179 65.2935 63.0612 65.4084 63.179 65.5232Z" fill="#CECECE"/>
</svg>
